<svg width="1024" height="1024" viewBox="0 0 1024 1024" fill="none" xmlns="http://www.w3.org/2000/svg">
<g clip-path="url(#clip0_20_924)">
<path d="M1024 0H0V1024H1024V0Z" fill="black"/>
<path d="M263 327.834C322.139 140.402 378.519 122.469 552.164 228.364C552.164 228.364 625.783 355.203 665.118 464.89C704.453 574.578 755.482 789.009 755.482 789.009L466.318 893C466.318 893 419.275 675.706 379.94 566.018C340.604 456.336 263 327.834 263 327.834Z" fill="#A2A2A2"/>
<path d="M263 327.834C322.139 140.402 378.519 122.469 552.164 228.364C552.164 228.364 625.783 355.203 665.118 464.89C704.453 574.578 755.482 789.009 755.482 789.009L466.318 893C466.318 893 419.275 675.706 379.94 566.018C340.604 456.336 263 327.834 263 327.834Z" fill="#A2A2A2"/>
<path d="M263 327.834C322.139 140.402 378.519 122.469 552.164 228.364C552.164 228.364 625.783 355.203 665.118 464.89C704.453 574.578 755.482 789.009 755.482 789.009L466.318 893C466.318 893 419.275 675.706 379.94 566.018C340.604 456.336 263 327.834 263 327.834Z" fill="#A2A2A2"/>
<path d="M263 327.834C322.139 140.402 378.519 122.469 552.164 228.364C552.164 228.364 625.783 355.203 665.118 464.89C704.453 574.578 755.482 789.009 755.482 789.009L466.318 893C466.318 893 419.275 675.706 379.94 566.018C340.604 456.336 263 327.834 263 327.834Z" stroke="#A2A2A2"/>
<path d="M551.712 227.99L263.61 327.094L267.969 296.558L556.07 197.453L551.712 227.99Z" fill="#A2A2A2" stroke="#A2A2A2"/>
<path d="M755.436 788.972L466.378 892.925L470.88 861.387L759.938 757.434L755.436 788.972Z" fill="white" stroke="white" stroke-width="0.1"/>
<path d="M267.518 296.184C326.657 108.753 383.038 90.8199 556.682 196.715C556.682 196.715 630.301 322.137 669.636 431.824C708.972 541.512 760 757.36 760 757.36L470.836 861.35C470.836 861.35 423.793 642.64 384.458 532.953C345.123 423.27 267.518 296.184 267.518 296.184Z" fill="white"/>
<path d="M267.518 296.184C326.657 108.753 383.038 90.8199 556.682 196.715C556.682 196.715 630.301 322.137 669.636 431.824C708.972 541.512 760 757.36 760 757.36L470.836 861.35C470.836 861.35 423.793 642.64 384.458 532.953C345.123 423.27 267.518 296.184 267.518 296.184Z" fill="white"/>
<path d="M267.518 296.184C326.657 108.753 383.038 90.8199 556.682 196.715C556.682 196.715 630.301 322.137 669.636 431.824C708.972 541.512 760 757.36 760 757.36L470.836 861.35C470.836 861.35 423.793 642.64 384.458 532.953C345.123 423.27 267.518 296.184 267.518 296.184Z" fill="white"/>
<path d="M400.804 223.843C414.529 223.843 425.654 212.71 425.654 198.976C425.654 185.242 414.529 174.108 400.804 174.108C387.08 174.108 375.954 185.242 375.954 198.976C375.954 212.71 387.08 223.843 400.804 223.843Z" fill="black"/>
</g>
<defs>
<clipPath id="clip0_20_924">
<rect width="1024" height="1024" fill="white"/>
</clipPath>
</defs>
</svg>
