<svg width="1024" height="1024" viewBox="0 0 1024 1024" fill="none" xmlns="http://www.w3.org/2000/svg">
<g clip-path="url(#clip0_16_493)">
<path d="M1024 0H0V1024H1024V0Z" fill="white"/>
<path d="M322.537 775.893C312.832 775.893 304.384 774.027 297.198 770.294C290.011 766.56 284.434 760.936 280.467 753.424C276.548 745.91 274.588 736.53 274.588 725.285C274.588 707.41 278.952 694.088 287.678 685.314C296.405 676.493 308.562 672.084 324.147 672.084C338.756 672.084 350.304 676.401 358.797 685.034C367.29 693.621 371.538 706.361 371.538 723.253C371.538 735.201 369.555 745.071 365.588 752.863C361.621 760.611 355.975 766.396 348.647 770.224C341.322 774.005 332.618 775.893 322.537 775.893ZM322.957 756.994C331.358 756.994 337.588 753.984 341.647 747.964C345.709 741.943 347.738 734.128 347.738 724.515C347.738 713.361 345.825 704.983 341.998 699.384C338.172 693.785 332.012 690.985 323.518 690.985C306.764 690.985 298.387 702.022 298.387 724.095C298.387 733.94 300.394 741.898 304.409 747.964C308.468 753.984 314.651 756.994 322.957 756.994ZM427.119 740.614C425.904 740.614 424.878 740.311 424.038 739.705C423.152 739.097 422.101 738.234 420.889 737.114C419.674 735.994 418.32 734.618 416.827 732.983C416.268 732.33 415.988 731.748 415.988 731.234C415.988 730.72 416.268 730.137 416.827 729.483C419.721 726.217 422.357 723.814 424.739 722.274C425.298 721.902 426.09 721.713 427.119 721.713C430.291 721.713 433.021 720.523 435.309 718.144C437.641 715.764 438.761 711.914 438.667 706.595C438.622 700.854 437.199 696.84 434.397 694.555C431.645 692.267 427.864 691.124 423.057 691.124H419.699C416.618 691.124 414.517 691.778 413.397 693.084C412.279 694.391 411.718 696.631 411.718 699.804V770.433C411.718 771.834 411.415 772.815 410.808 773.374C410.247 773.888 409.268 774.144 407.867 774.144H392.958C391.557 774.144 390.556 773.888 389.947 773.374C389.388 772.815 389.108 771.834 389.108 770.433V692.523C389.108 687.858 389.528 684.171 390.367 681.464C391.254 678.711 392.935 676.751 395.407 675.584C397.928 674.372 401.592 673.763 406.399 673.763H423.057C436.451 673.763 446.368 676.401 452.809 681.675C459.248 686.901 462.467 694.927 462.467 705.753C462.467 713.873 460.765 720.501 457.357 725.633C453.999 730.767 449.612 734.548 444.199 736.975C438.831 739.4 433.138 740.614 427.119 740.614ZM494.459 774.144C489.652 774.144 485.988 773.538 483.467 772.323C480.995 771.111 479.314 769.126 478.427 766.374C477.587 763.621 477.168 759.958 477.168 755.384V692.523C477.168 687.858 477.587 684.171 478.427 681.464C479.314 678.711 480.995 676.751 483.467 675.584C485.988 674.372 489.652 673.763 494.459 673.763H527.358C528.478 673.763 529.318 673.95 529.877 674.325C531.091 675.164 532.351 676.168 533.658 677.333C534.964 678.5 536.341 679.901 537.788 681.533C538.255 682.14 538.489 682.631 538.489 683.004C538.489 683.424 538.255 683.891 537.788 684.405C536.341 686.037 534.964 687.438 533.658 688.603C532.351 689.771 531.091 690.774 529.877 691.614C529.224 691.986 528.384 692.175 527.358 692.175H507.759C504.678 692.175 502.577 692.828 501.459 694.135C500.339 695.441 499.778 697.68 499.778 700.854V714.435H524.909C526.029 714.435 526.868 714.621 527.428 714.994C528.642 715.833 529.902 716.837 531.208 718.004C532.515 719.172 533.891 720.57 535.339 722.205C535.804 722.811 536.037 723.3 536.037 723.673C536.037 724.095 535.804 724.56 535.339 725.074C533.891 726.708 532.515 728.107 531.208 729.274C529.902 730.44 528.642 731.443 527.428 732.285C526.774 732.658 525.935 732.844 524.909 732.844H499.778V746.983C499.778 750.111 500.339 752.351 501.459 753.705C502.577 755.057 504.678 755.735 507.759 755.735H529.668C530.788 755.735 531.628 755.921 532.187 756.294C533.402 757.133 534.661 758.137 535.968 759.304C537.274 760.472 538.651 761.87 540.099 763.505C540.566 764.111 540.799 764.6 540.799 764.973C540.799 765.395 540.566 765.86 540.099 766.374C538.651 768.008 537.274 769.407 535.968 770.574C534.661 771.74 533.402 772.743 532.187 773.585C531.534 773.958 530.694 774.144 529.668 774.144H494.459ZM578.177 770.433C578.177 771.834 577.874 772.815 577.268 773.374C576.709 773.888 575.728 774.144 574.329 774.144H559.417C558.019 774.144 557.015 773.888 556.409 773.374C555.848 772.815 555.567 771.834 555.567 770.433V692.523C555.567 687.858 555.989 684.171 556.829 681.464C557.715 678.711 559.395 676.751 561.869 675.584C564.388 674.372 568.052 673.763 572.858 673.763H591.407C615.768 673.763 627.948 683.121 627.948 701.833C627.948 707.527 626.991 712.194 625.078 715.833C623.165 719.475 620.786 722.321 617.939 724.374C615.092 726.381 612.291 727.898 609.538 728.924V729.274C612.665 731.327 615.629 734.034 618.428 737.395C621.275 740.708 623.841 744.323 626.129 748.245C628.414 752.118 630.352 755.968 631.937 759.794C633.524 763.574 634.622 766.958 635.228 769.944C635.509 771.344 635.509 772.395 635.228 773.093C634.995 773.794 634.202 774.144 632.848 774.144H616.677C615.465 774.144 614.392 773.888 613.458 773.374C612.571 772.86 611.754 771.67 611.009 769.804C607.461 760.891 603.378 753.633 598.757 748.034C594.137 742.388 589.681 737.862 585.388 734.454C582.636 732.26 581.257 730.698 581.257 729.764C581.257 729.016 581.702 727.99 582.588 726.684C583.148 725.891 583.965 724.935 585.038 723.814C586.111 722.694 587.045 721.855 587.837 721.293C588.632 720.734 589.261 720.384 589.728 720.245C590.242 720.103 591.012 720.034 592.038 720.034C595.491 720.034 598.362 718.844 600.648 716.464C602.98 714.084 604.148 710.328 604.148 705.194C604.148 700.34 602.911 696.793 600.439 694.555C598.012 692.267 594.651 691.124 590.359 691.124H586.158C583.078 691.124 580.979 691.778 579.858 693.084C578.738 694.391 578.177 696.631 578.177 699.804V770.433ZM691.438 775.893C681.732 775.893 673.284 774.027 666.098 770.294C658.911 766.56 653.335 760.936 649.368 753.424C645.448 745.91 643.488 736.53 643.488 725.285C643.488 707.41 647.852 694.088 656.579 685.314C665.305 676.493 677.462 672.084 693.047 672.084C707.656 672.084 719.204 676.401 727.697 685.034C736.191 693.621 740.438 706.361 740.438 723.253C740.438 735.201 738.456 745.071 734.489 752.863C730.522 760.611 724.875 766.396 717.548 770.224C710.222 774.005 701.518 775.893 691.438 775.893ZM691.857 756.994C700.258 756.994 706.488 753.984 710.547 747.964C714.609 741.943 716.638 734.128 716.638 724.515C716.638 713.361 714.725 704.983 710.898 699.384C707.072 693.785 700.912 690.985 692.419 690.985C675.664 690.985 667.288 702.022 667.288 724.095C667.288 733.94 669.295 741.898 673.309 747.964C677.368 753.984 683.551 756.994 691.857 756.994Z" fill="#0F0F11"/>
<path d="M225.649 813.056C224.549 813.056 223.711 812.917 223.136 812.64C222.57 812.362 222.188 811.909 221.985 811.28C221.792 810.652 221.696 809.814 221.696 808.768V794.401C221.696 793.334 221.792 792.49 221.985 791.872C222.188 791.243 222.57 790.794 223.136 790.528C223.711 790.252 224.549 790.112 225.649 790.112H233.169C233.425 790.112 233.615 790.155 233.744 790.239C234.021 790.432 234.31 790.661 234.609 790.927C234.908 791.196 235.221 791.515 235.553 791.888C235.659 792.027 235.713 792.138 235.713 792.224C235.713 792.32 235.659 792.427 235.553 792.543C235.221 792.918 234.908 793.238 234.609 793.504C234.31 793.77 234.021 793.999 233.744 794.192C233.595 794.278 233.402 794.321 233.169 794.321H228.688C227.983 794.321 227.504 794.468 227.248 794.767C226.992 795.066 226.863 795.578 226.863 796.303V799.408H232.608C232.864 799.408 233.056 799.451 233.183 799.535C233.462 799.728 233.748 799.957 234.047 800.223C234.346 800.492 234.662 800.811 234.992 801.184C235.098 801.323 235.151 801.436 235.151 801.52C235.151 801.616 235.098 801.722 234.992 801.839C234.662 802.214 234.346 802.533 234.047 802.8C233.748 803.066 233.462 803.295 233.183 803.488C233.034 803.574 232.843 803.617 232.608 803.617H226.863V806.849C226.863 807.563 226.992 808.075 227.248 808.385C227.504 808.694 227.983 808.847 228.688 808.847H233.695C233.951 808.847 234.144 808.89 234.273 808.976C234.549 809.169 234.838 809.398 235.135 809.665C235.434 809.931 235.749 810.25 236.079 810.623C236.188 810.762 236.241 810.875 236.241 810.961C236.241 811.055 236.188 811.164 236.079 811.28C235.749 811.653 235.434 811.973 235.135 812.241C234.838 812.507 234.549 812.737 234.273 812.929C234.123 813.013 233.931 813.056 233.695 813.056H225.649ZM241.312 813.392C241.089 813.488 240.929 813.535 240.833 813.535C240.736 813.535 240.634 813.498 240.527 813.425C240.284 813.253 240.001 812.837 239.679 812.175C239.37 811.504 239.217 810.476 239.217 809.087V790.561C239.217 790.305 239.27 790.106 239.376 789.969C239.825 789.381 240.48 788.746 241.345 788.064C241.494 787.958 241.627 787.905 241.744 787.905C241.883 787.905 242.016 787.958 242.143 788.064C242.602 788.417 242.987 788.746 243.296 789.056C243.616 789.365 243.888 789.67 244.111 789.969C244.218 790.106 244.271 790.305 244.271 790.561V808.112C244.271 808.817 244.33 809.419 244.447 809.921C244.566 810.41 244.703 810.805 244.863 811.104C245.045 811.457 244.976 811.706 244.656 811.856L241.312 813.392ZM262.271 813.455C261.13 813.455 260.182 813.359 259.424 813.169C258.677 812.976 258.075 812.747 257.616 812.481C257.167 812.202 256.815 811.952 256.559 811.729C256.369 811.547 256.346 811.344 256.496 811.121L258.128 808.704C258.363 808.362 258.63 808.342 258.929 808.641C259.238 808.94 259.654 809.232 260.176 809.519C260.708 809.798 261.37 809.937 262.16 809.937C262.865 809.937 263.44 809.818 263.889 809.585C264.348 809.339 264.577 808.987 264.577 808.528C264.577 808.208 264.475 807.946 264.272 807.744C264.069 807.541 263.713 807.334 263.201 807.121C262.689 806.906 261.974 806.636 261.057 806.304C259.701 805.814 258.677 805.22 257.985 804.528C257.29 803.834 256.944 802.822 256.944 801.489C256.944 800.262 257.28 799.265 257.952 798.497C258.634 797.729 259.504 797.168 260.561 796.815C261.626 796.453 262.736 796.273 263.889 796.273C265.349 796.273 266.373 796.41 266.961 796.688C267.557 796.955 267.942 797.164 268.112 797.311C268.272 797.45 268.384 797.61 268.448 797.792C268.587 798.208 268.693 798.757 268.767 799.441C268.81 799.834 268.71 800.096 268.464 800.223C268.335 800.299 268.132 800.379 267.856 800.465C267.579 800.549 267.301 800.625 267.024 800.688C266.746 800.752 266.539 800.784 266.4 800.784C266.357 800.784 266.31 800.774 266.256 800.752C266.213 800.721 266.134 800.651 266.017 800.545C265.878 800.406 265.638 800.246 265.296 800.064C264.966 799.883 264.507 799.791 263.92 799.791C263.344 799.791 262.859 799.887 262.463 800.08C262.081 800.262 261.888 800.586 261.888 801.057C261.888 801.569 262.134 801.952 262.623 802.208C263.125 802.464 263.946 802.796 265.089 803.201C265.984 803.51 266.762 803.85 267.424 804.225C268.095 804.588 268.614 805.067 268.976 805.665C269.339 806.251 269.521 807.045 269.521 808.049C269.521 809.349 269.162 810.4 268.448 811.201C267.743 811.989 266.838 812.564 265.728 812.929C264.63 813.279 263.477 813.455 262.271 813.455ZM271.919 791.296C271.919 791.157 271.962 791.034 272.048 790.927C272.134 790.821 272.245 790.684 272.384 790.512C272.683 790.172 273.029 789.813 273.424 789.441C273.82 789.056 274.219 788.689 274.624 788.337C274.88 788.134 275.071 788.032 275.2 788.032C275.329 788.032 275.526 788.134 275.792 788.337C276.656 789.082 277.391 789.807 278 790.512C278.139 790.671 278.252 790.811 278.335 790.927C278.432 791.034 278.481 791.157 278.481 791.296C278.481 791.435 278.432 791.558 278.335 791.665C278.252 791.771 278.133 791.915 277.983 792.097C277.696 792.427 277.361 792.785 276.976 793.168C276.593 793.541 276.197 793.899 275.792 794.239C275.642 794.368 275.526 794.454 275.44 794.497C275.356 794.528 275.274 794.544 275.2 794.544C275.126 794.544 275.044 794.528 274.96 794.497C274.885 794.454 274.762 794.368 274.592 794.239C274.166 793.899 273.764 793.541 273.392 793.168C273.019 792.785 272.683 792.416 272.384 792.064C272.245 791.894 272.134 791.761 272.048 791.665C271.962 791.558 271.919 791.435 271.919 791.296ZM277.713 812.208C277.713 812.528 277.643 812.753 277.504 812.88C277.377 812.997 277.152 813.056 276.832 813.056H273.535C273.215 813.056 272.986 812.997 272.849 812.88C272.72 812.753 272.656 812.528 272.656 812.208V797.52C272.656 797.2 272.72 796.981 272.849 796.865C272.986 796.736 273.215 796.672 273.535 796.672H276.832C277.152 796.672 277.377 796.736 277.504 796.865C277.643 796.981 277.713 797.2 277.713 797.52V812.208ZM286.624 813.455C285.483 813.455 284.533 813.359 283.775 813.169C283.029 812.976 282.427 812.747 281.969 812.481C281.52 812.202 281.168 811.952 280.912 811.729C280.719 811.547 280.699 811.344 280.848 811.121L282.481 808.704C282.714 808.362 282.98 808.342 283.279 808.641C283.589 808.94 284.004 809.232 284.529 809.519C285.061 809.798 285.723 809.937 286.511 809.937C287.216 809.937 287.791 809.818 288.24 809.585C288.698 809.339 288.928 808.987 288.928 808.528C288.928 808.208 288.827 807.946 288.625 807.744C288.422 807.541 288.063 807.334 287.551 807.121C287.039 806.906 286.325 806.636 285.407 806.304C284.053 805.814 283.029 805.22 282.335 804.528C281.643 803.834 281.297 802.822 281.297 801.489C281.297 800.262 281.633 799.265 282.304 798.497C282.986 797.729 283.857 797.168 284.912 796.815C285.979 796.453 287.089 796.273 288.24 796.273C289.702 796.273 290.726 796.41 291.312 796.688C291.91 796.955 292.293 797.164 292.465 797.311C292.624 797.45 292.737 797.61 292.8 797.792C292.938 798.208 293.046 798.757 293.12 799.441C293.163 799.834 293.061 800.096 292.817 800.223C292.688 800.299 292.485 800.379 292.209 800.465C291.93 800.549 291.654 800.625 291.375 800.688C291.099 800.752 290.89 800.784 290.752 800.784C290.709 800.784 290.66 800.774 290.607 800.752C290.566 800.721 290.486 800.651 290.367 800.545C290.23 800.406 289.989 800.246 289.649 800.064C289.317 799.883 288.858 799.791 288.272 799.791C287.697 799.791 287.212 799.887 286.816 800.08C286.431 800.262 286.241 800.586 286.241 801.057C286.241 801.569 286.484 801.952 286.976 802.208C287.478 802.464 288.299 802.796 289.44 803.201C290.337 803.51 291.115 803.85 291.776 804.225C292.448 804.588 292.964 805.067 293.329 805.665C293.691 806.251 293.872 807.045 293.872 808.049C293.872 809.349 293.515 810.4 292.8 811.201C292.096 811.989 291.189 812.564 290.081 812.929C288.981 813.279 287.83 813.455 286.624 813.455ZM302.848 813.455C299.284 813.455 297.505 811.606 297.505 807.903V800.399H295.696C295.377 800.399 295.152 800.336 295.025 800.209C294.906 800.07 294.848 799.84 294.848 799.521V797.553C294.848 797.231 294.906 797.008 295.025 796.881C295.152 796.742 295.377 796.672 295.696 796.672H297.505V794.096C297.505 793.84 297.558 793.643 297.664 793.504C298.111 792.918 298.768 792.283 299.633 791.599C299.782 791.493 299.915 791.439 300.032 791.439C300.159 791.439 300.288 791.493 300.417 791.599C300.874 791.951 301.259 792.283 301.568 792.592C301.887 792.902 302.16 793.205 302.383 793.504C302.492 793.643 302.545 793.84 302.545 794.096V796.672H305.375C305.697 796.672 305.914 796.742 306.033 796.881C306.16 797.008 306.223 797.231 306.223 797.553V799.521C306.223 799.84 306.16 800.07 306.033 800.209C305.914 800.336 305.697 800.399 305.375 800.399H302.545V807.025C302.545 808.731 303.163 809.585 304.4 809.585C304.593 809.585 304.767 809.568 304.929 809.536C305.089 809.493 305.226 809.452 305.344 809.409C305.568 809.323 305.723 809.29 305.807 809.312C305.904 809.333 305.99 809.452 306.063 809.665L306.991 812.145C307.087 812.411 307.024 812.603 306.801 812.72C306.641 812.794 306.25 812.933 305.631 813.136C305.025 813.349 304.095 813.455 302.848 813.455ZM317.393 813.455C315.589 813.455 314.022 813.169 312.689 812.591C311.355 812.005 310.319 811.098 309.584 809.871C308.849 808.645 308.48 807.062 308.48 805.12C308.48 802.208 309.227 800.006 310.72 798.511C312.213 797.018 314.198 796.273 316.672 796.273C318.282 796.273 319.644 796.559 320.752 797.137C321.872 797.712 322.72 798.507 323.295 799.521C323.883 800.533 324.176 801.692 324.176 802.992C324.176 804.262 323.85 805.147 323.199 805.648C322.55 806.15 321.599 806.4 320.352 806.4H313.487C313.573 807.498 313.973 808.335 314.687 808.913C315.412 809.488 316.395 809.775 317.632 809.775C318.613 809.775 319.398 809.632 319.984 809.345C320.582 809.046 320.997 808.811 321.233 808.641C321.436 808.491 321.663 808.421 321.921 808.432C322.122 808.432 322.41 808.475 322.783 808.561C323.168 808.634 323.547 808.778 323.92 808.993C324.186 809.13 324.319 809.323 324.319 809.568C324.319 809.708 324.293 809.904 324.239 810.16C324.209 810.31 324.155 810.529 324.08 810.816C324.006 811.094 323.91 811.354 323.793 811.6C323.727 811.717 323.627 811.829 323.488 811.936C323.275 812.085 322.929 812.282 322.447 812.528C321.978 812.773 321.333 812.986 320.512 813.169C319.691 813.359 318.65 813.455 317.393 813.455ZM313.457 803.119H318.673C319.216 803.119 319.488 802.869 319.488 802.368C319.488 801.61 319.248 800.977 318.767 800.465C318.298 799.941 317.589 799.681 316.639 799.681C315.605 799.681 314.843 800.01 314.352 800.672C313.872 801.333 313.573 802.148 313.457 803.119ZM342.352 798.351C342.747 797.872 343.355 797.407 344.177 796.961C345.008 796.502 346.175 796.273 347.681 796.273C349.813 796.273 351.355 796.822 352.303 797.919C353.253 799.019 353.728 800.668 353.728 802.863V812.208C353.728 812.528 353.659 812.753 353.52 812.88C353.393 812.997 353.167 813.056 352.848 813.056H349.553C349.231 813.056 349.002 812.997 348.864 812.88C348.735 812.753 348.672 812.528 348.672 812.208V803.697C348.672 802.501 348.453 801.649 348.017 801.137C347.578 800.612 346.923 800.352 346.048 800.352C345.27 800.352 344.65 800.528 344.191 800.881C343.744 801.221 343.425 801.686 343.232 802.271V812.208C343.232 812.528 343.163 812.753 343.024 812.88C342.897 812.997 342.671 813.056 342.352 813.056H339.057C338.735 813.056 338.506 812.997 338.368 812.88C338.239 812.753 338.176 812.528 338.176 812.208V803.697C338.176 802.533 337.936 801.686 337.455 801.153C336.976 800.619 336.347 800.352 335.569 800.352C334.832 800.352 334.24 800.533 333.791 800.895C333.345 801.26 332.997 801.718 332.753 802.271V812.208C332.753 812.528 332.683 812.753 332.544 812.88C332.415 812.997 332.192 813.056 331.872 813.056H328.577C328.255 813.056 328.026 812.997 327.889 812.88C327.76 812.753 327.696 812.528 327.696 812.208V798.8C327.696 798.544 327.75 798.347 327.856 798.208C328.079 797.909 328.348 797.606 328.657 797.297C328.976 796.987 329.365 796.656 329.824 796.303C329.964 796.197 330.097 796.144 330.224 796.144C330.34 796.144 330.476 796.197 330.625 796.303C331.071 796.656 331.457 796.992 331.776 797.311C332.095 797.633 332.378 797.962 332.624 798.304H332.704C333.066 797.846 333.631 797.393 334.399 796.944C335.167 796.496 336.267 796.273 337.697 796.273C339.061 796.273 340.074 796.48 340.736 796.895C341.397 797.301 341.936 797.786 342.352 798.351ZM362.303 813.455C360.737 813.455 359.487 813.019 358.56 812.145C357.642 811.258 357.183 810.043 357.183 808.495C357.183 807.696 357.329 806.955 357.616 806.273C357.915 805.579 358.427 804.971 359.152 804.448C359.889 803.914 360.913 803.488 362.224 803.168C363.547 802.849 365.232 802.66 367.28 802.607C367.28 801.636 367.034 800.938 366.545 800.512C366.064 800.086 365.339 799.871 364.368 799.871C363.493 799.871 362.779 800.021 362.224 800.32C361.669 800.619 361.322 800.821 361.183 800.928C361.034 801.057 360.853 801.104 360.64 801.071C360.352 801.03 360.042 800.954 359.713 800.848C359.391 800.741 359.045 800.619 358.672 800.479C358.619 800.459 358.56 800.426 358.496 800.383C358.433 800.33 358.394 800.256 358.384 800.16C358.384 800.107 358.39 800.043 358.4 799.967C358.41 799.883 358.437 799.734 358.48 799.521C358.523 799.306 358.586 799.046 358.672 798.736C358.756 798.417 358.838 798.171 358.912 797.999C359.008 797.819 359.168 797.649 359.391 797.487C359.573 797.34 360.122 797.098 361.04 796.768C361.957 796.437 363.284 796.273 365.023 796.273C369.813 796.273 372.208 798.603 372.208 803.265V812.321C372.208 812.524 372.15 812.7 372.031 812.847C371.925 812.986 371.739 813.056 371.472 813.056H369.072C368.902 813.056 368.746 813.036 368.607 812.993C368.48 812.939 368.357 812.843 368.241 812.704L367.247 811.424H367.137C366.645 812.139 365.984 812.657 365.152 812.976C364.331 813.296 363.381 813.455 362.303 813.455ZM364.065 809.744C365.046 809.744 365.787 809.493 366.289 808.993C366.789 808.491 367.11 807.973 367.247 807.44V805.665C365.765 805.665 364.65 805.782 363.905 806.015C363.168 806.24 362.678 806.539 362.432 806.912C362.187 807.275 362.064 807.67 362.064 808.096C362.064 808.714 362.256 809.146 362.639 809.392C363.024 809.628 363.5 809.744 364.065 809.744ZM393.871 796.256C395.258 796.256 396.421 796.357 397.359 796.559C398.309 796.762 399.104 797.014 399.745 797.311C400.384 797.61 400.943 797.909 401.424 798.208V818.528C401.424 818.784 401.371 818.981 401.265 819.12C400.816 819.706 400.161 820.341 399.296 821.025C399.147 821.131 399.014 821.185 398.895 821.185C398.768 821.185 398.635 821.131 398.496 821.025C398.037 820.673 397.648 820.341 397.328 820.032C397.019 819.722 396.753 819.419 396.528 819.12C396.421 818.981 396.368 818.784 396.368 818.528V811.424H396.304C396.069 811.723 395.766 812.026 395.391 812.335C395.018 812.644 394.533 812.907 393.937 813.12C393.349 813.333 392.591 813.441 391.664 813.441C390.054 813.441 388.731 813.093 387.697 812.401C386.673 811.696 385.915 810.732 385.423 809.505C384.944 808.278 384.704 806.879 384.704 805.313C384.704 803.594 384.987 802.054 385.552 800.688C386.118 799.322 387.066 798.245 388.399 797.456C389.732 796.656 391.557 796.256 393.871 796.256ZM393.695 800.129C392.458 800.129 391.514 800.545 390.865 801.376C390.214 802.208 389.888 803.498 389.888 805.249C389.888 807.989 391.018 809.359 393.279 809.359C394.166 809.359 394.842 809.179 395.311 808.817C395.782 808.454 396.132 807.995 396.368 807.44V800.832C396.132 800.662 395.803 800.502 395.377 800.352C394.949 800.203 394.389 800.129 393.695 800.129ZM411.455 813.455C407.659 813.455 405.76 811.158 405.76 806.56L405.744 798.431C405.744 798.175 405.797 797.979 405.903 797.839C406.352 797.254 407.007 796.619 407.871 795.937C408.021 795.83 408.154 795.775 408.273 795.775C408.41 795.775 408.543 795.83 408.672 795.937C409.131 796.287 409.514 796.619 409.823 796.928C410.145 797.237 410.415 797.54 410.64 797.839C410.747 797.979 410.8 798.175 410.8 798.431V806.111C410.8 808.428 411.718 809.585 413.553 809.585C414.458 809.585 415.185 809.269 415.728 808.641C416.272 808 416.545 807.135 416.545 806.048V798.431C416.545 798.175 416.598 797.979 416.704 797.839C417.153 797.254 417.808 796.619 418.673 795.937C418.822 795.83 418.955 795.775 419.072 795.775C419.211 795.775 419.344 795.83 419.471 795.937C419.93 796.287 420.315 796.619 420.624 796.928C420.944 797.237 421.216 797.54 421.439 797.839C421.546 797.979 421.599 798.175 421.599 798.431V812.321C421.599 812.524 421.532 812.7 421.392 812.847C421.253 812.986 421.077 813.056 420.864 813.056H418.464C418.294 813.056 418.138 813.036 418.001 812.993C417.872 812.939 417.749 812.843 417.632 812.704L416.641 811.424H416.528C416.356 811.67 416.09 811.952 415.728 812.272C415.375 812.591 414.859 812.87 414.175 813.103C413.503 813.339 412.598 813.455 411.455 813.455ZM433.967 813.455C432.165 813.455 430.598 813.169 429.265 812.591C427.932 812.005 426.895 811.098 426.16 809.871C425.425 808.645 425.056 807.062 425.056 805.12C425.056 802.208 425.802 800.006 427.297 798.511C428.79 797.018 430.774 796.273 433.248 796.273C434.858 796.273 436.218 796.559 437.328 797.137C438.448 797.712 439.296 798.507 439.871 799.521C440.459 800.533 440.752 801.692 440.752 802.992C440.752 804.262 440.426 805.147 439.775 805.648C439.126 806.15 438.176 806.4 436.928 806.4H430.064C430.15 807.498 430.549 808.335 431.264 808.913C431.989 809.488 432.97 809.775 434.209 809.775C435.19 809.775 435.974 809.632 436.56 809.345C437.158 809.046 437.574 808.811 437.807 808.641C438.01 808.491 438.239 808.421 438.495 808.432C438.698 808.432 438.987 808.475 439.359 808.561C439.745 808.634 440.123 808.778 440.496 808.993C440.762 809.13 440.895 809.323 440.895 809.568C440.895 809.708 440.869 809.904 440.816 810.16C440.785 810.31 440.732 810.529 440.656 810.816C440.582 811.094 440.486 811.354 440.367 811.6C440.304 811.717 440.203 811.829 440.064 811.936C439.851 812.085 439.505 812.282 439.024 812.528C438.555 812.773 437.909 812.986 437.088 813.169C436.267 813.359 435.227 813.455 433.967 813.455ZM430.033 803.119H435.247C435.792 803.119 436.064 802.869 436.064 802.368C436.064 801.61 435.825 800.977 435.343 800.465C434.874 799.941 434.166 799.681 433.215 799.681C432.181 799.681 431.419 800.01 430.928 800.672C430.449 801.333 430.15 802.148 430.033 803.119ZM461.488 796.273C462.758 796.273 463.679 796.379 464.257 796.592C464.833 796.795 465.195 796.955 465.344 797.071C465.578 797.221 465.76 797.413 465.887 797.649C465.963 797.766 466.047 797.968 466.143 798.255C466.239 798.544 466.309 798.859 466.352 799.199C466.405 799.468 466.412 799.658 466.368 799.777C466.325 799.883 466.192 800.016 465.967 800.176C465.711 800.346 465.428 800.502 465.119 800.641C464.822 800.768 464.577 800.858 464.384 800.911C464.224 800.954 464.101 800.965 464.015 800.944C463.931 800.924 463.813 800.858 463.663 800.752C463.493 800.635 463.253 800.506 462.944 800.369C462.635 800.219 462.209 800.143 461.664 800.143C460.97 800.143 460.308 800.315 459.68 800.655C459.061 800.997 458.555 801.509 458.16 802.191C457.775 802.875 457.585 803.727 457.585 804.751C457.585 806.287 457.984 807.477 458.785 808.321C459.594 809.163 460.677 809.585 462.033 809.585C462.725 809.585 463.301 809.515 463.759 809.376C464.218 809.226 464.581 809.077 464.849 808.927C465.062 808.811 465.222 808.784 465.328 808.847C465.445 808.901 465.535 809.003 465.6 809.153L466.768 811.792C466.885 812.069 466.821 812.268 466.575 812.384C466.182 812.587 465.531 812.816 464.624 813.072C463.716 813.328 462.598 813.455 461.265 813.455C458.586 813.455 456.448 812.747 454.848 811.328C453.247 809.898 452.448 807.766 452.448 804.928C452.448 803.115 452.817 801.563 453.552 800.272C454.287 798.982 455.334 797.995 456.688 797.311C458.043 796.619 459.643 796.273 461.488 796.273ZM474.448 799.711H474.511C475.312 797.493 476.752 796.383 478.833 796.383C479.099 796.383 479.318 796.4 479.488 796.432C479.658 796.453 479.777 796.475 479.84 796.496C480 796.549 480.08 796.672 480.08 796.865V800.721C480.08 801.051 479.887 801.141 479.504 800.991C479.375 800.938 479.189 800.885 478.943 800.832C478.71 800.768 478.378 800.735 477.952 800.735C476.854 800.735 475.994 801.141 475.376 801.952C474.757 802.753 474.448 803.846 474.448 805.233V812.208C474.448 812.528 474.378 812.753 474.239 812.88C474.112 812.997 473.889 813.056 473.567 813.056H470.272C469.953 813.056 469.723 812.997 469.584 812.88C469.457 812.753 469.391 812.528 469.391 812.208V798.8C469.391 798.544 469.445 798.347 469.551 798.208C469.776 797.909 470.043 797.606 470.352 797.297C470.671 796.987 471.06 796.656 471.519 796.303C471.605 796.24 471.691 796.197 471.775 796.176C471.861 796.154 471.937 796.144 472 796.144C472.15 796.144 472.3 796.197 472.449 796.303C473.334 796.998 473.952 797.59 474.304 798.081C474.401 798.208 474.448 798.358 474.448 798.528V799.711ZM490.512 813.455C488.71 813.455 487.141 813.169 485.808 812.591C484.475 812.005 483.441 811.098 482.703 809.871C481.968 808.645 481.599 807.062 481.599 805.12C481.599 802.208 482.347 800.006 483.84 798.511C485.333 797.018 487.318 796.273 489.791 796.273C491.403 796.273 492.763 796.559 493.871 797.137C494.991 797.712 495.839 798.507 496.417 799.521C497.003 800.533 497.295 801.692 497.295 802.992C497.295 804.262 496.97 805.147 496.32 805.648C495.669 806.15 494.719 806.4 493.472 806.4H486.609C486.693 807.498 487.094 808.335 487.809 808.913C488.534 809.488 489.515 809.775 490.752 809.775C491.733 809.775 492.517 809.632 493.103 809.345C493.701 809.046 494.117 808.811 494.352 808.641C494.555 808.491 494.784 808.421 495.04 808.432C495.243 808.432 495.53 808.475 495.905 808.561C496.288 808.634 496.667 808.778 497.039 808.993C497.308 809.13 497.441 809.323 497.441 809.568C497.441 809.708 497.414 809.904 497.361 810.16C497.328 810.31 497.275 810.529 497.199 810.816C497.125 811.094 497.029 811.354 496.912 811.6C496.849 811.717 496.746 811.829 496.607 811.936C496.394 812.085 496.048 812.282 495.569 812.528C495.098 812.773 494.453 812.986 493.631 813.169C492.81 813.359 491.77 813.455 490.512 813.455ZM486.576 803.119H491.792C492.335 803.119 492.607 802.869 492.607 802.368C492.607 801.61 492.368 800.977 491.889 800.465C491.42 799.941 490.709 799.681 489.761 799.681C488.724 799.681 487.963 800.01 487.471 800.672C486.992 801.333 486.693 802.148 486.576 803.119ZM508.975 796.273C510.245 796.273 511.169 796.379 511.744 796.592C512.319 796.795 512.682 796.955 512.831 797.071C513.067 797.221 513.247 797.413 513.376 797.649C513.45 797.766 513.536 797.968 513.632 798.255C513.729 798.544 513.798 798.859 513.839 799.199C513.892 799.468 513.899 799.658 513.855 799.777C513.812 799.883 513.679 800.016 513.456 800.176C513.2 800.346 512.917 800.502 512.608 800.641C512.309 800.768 512.063 800.858 511.873 800.911C511.711 800.954 511.588 800.965 511.504 800.944C511.418 800.924 511.302 800.858 511.152 800.752C510.982 800.635 510.74 800.506 510.431 800.369C510.122 800.219 509.696 800.143 509.151 800.143C508.459 800.143 507.798 800.315 507.169 800.655C506.55 800.997 506.042 801.509 505.647 802.191C505.264 802.875 505.072 803.727 505.072 804.751C505.072 806.287 505.471 807.477 506.272 808.321C507.083 809.163 508.166 809.585 509.52 809.585C510.214 809.585 510.79 809.515 511.248 809.376C511.707 809.226 512.07 809.077 512.336 808.927C512.549 808.811 512.709 808.784 512.815 808.847C512.934 808.901 513.024 809.003 513.087 809.153L514.257 811.792C514.374 812.069 514.31 812.268 514.064 812.384C513.669 812.587 513.018 812.816 512.113 813.072C511.205 813.328 510.085 813.455 508.752 813.455C506.075 813.455 503.935 812.747 502.335 811.328C500.736 809.898 499.935 807.766 499.935 804.928C499.935 803.115 500.304 801.563 501.039 800.272C501.776 798.982 502.821 797.995 504.177 797.311C505.53 796.619 507.13 796.273 508.975 796.273ZM524.913 813.455C523.108 813.455 521.542 813.169 520.208 812.591C518.875 812.005 517.841 811.098 517.104 809.871C516.368 808.645 516 807.062 516 805.12C516 802.208 516.747 800.006 518.24 798.511C519.733 797.018 521.718 796.273 524.192 796.273C525.804 796.273 527.163 796.559 528.271 797.137C529.392 797.712 530.239 798.507 530.817 799.521C531.403 800.533 531.696 801.692 531.696 802.992C531.696 804.262 531.37 805.147 530.721 805.648C530.069 806.15 529.119 806.4 527.872 806.4H521.007C521.093 807.498 521.492 808.335 522.207 808.913C522.934 809.488 523.915 809.775 525.152 809.775C526.133 809.775 526.918 809.632 527.503 809.345C528.101 809.046 528.517 808.811 528.753 808.641C528.955 808.491 529.185 808.421 529.441 808.432C529.644 808.432 529.93 808.475 530.305 808.561C530.688 808.634 531.067 808.778 531.44 808.993C531.706 809.13 531.841 809.323 531.841 809.568C531.841 809.708 531.812 809.904 531.759 810.16C531.728 810.31 531.675 810.529 531.599 810.816C531.526 811.094 531.429 811.354 531.313 811.6C531.247 811.717 531.147 811.829 531.007 811.936C530.795 812.085 530.448 812.282 529.967 812.528C529.498 812.773 528.853 812.986 528.032 813.169C527.211 813.359 526.17 813.455 524.913 813.455ZM520.976 803.119H526.193C526.735 803.119 527.008 802.869 527.008 802.368C527.008 801.61 526.768 800.977 526.289 800.465C525.818 799.941 525.109 799.681 524.161 799.681C523.125 799.681 522.363 800.01 521.871 800.672C521.392 801.333 521.093 802.148 520.976 803.119ZM552.432 796.273C553.701 796.273 554.623 796.379 555.2 796.592C555.776 796.795 556.138 796.955 556.288 797.071C556.524 797.221 556.704 797.413 556.833 797.649C556.906 797.766 556.992 797.968 557.089 798.255C557.183 798.544 557.253 798.859 557.296 799.199C557.349 799.468 557.355 799.658 557.312 799.777C557.269 799.883 557.136 800.016 556.913 800.176C556.657 800.346 556.374 800.502 556.065 800.641C555.766 800.768 555.52 800.858 555.327 800.911C555.168 800.954 555.045 800.965 554.961 800.944C554.875 800.924 554.758 800.858 554.609 800.752C554.437 800.635 554.197 800.506 553.888 800.369C553.579 800.219 553.153 800.143 552.608 800.143C551.916 800.143 551.254 800.315 550.623 800.655C550.005 800.997 549.499 801.509 549.104 802.191C548.721 802.875 548.528 803.727 548.528 804.751C548.528 806.287 548.927 807.477 549.728 808.321C550.539 809.163 551.621 809.585 552.976 809.585C553.669 809.585 554.246 809.515 554.705 809.376C555.164 809.226 555.526 809.077 555.792 808.927C556.005 808.811 556.165 808.784 556.272 808.847C556.388 808.901 556.481 809.003 556.544 809.153L557.711 811.792C557.83 812.069 557.765 812.268 557.521 812.384C557.126 812.587 556.474 812.816 555.567 813.072C554.662 813.328 553.542 813.455 552.208 813.455C549.532 813.455 547.391 812.747 545.792 811.328C544.193 809.898 543.392 807.766 543.392 804.928C543.392 803.115 543.76 801.563 544.496 800.272C545.233 798.982 546.277 797.995 547.631 797.311C548.987 796.619 550.586 796.273 552.432 796.273ZM568.193 813.455C565.504 813.455 563.376 812.741 561.807 811.311C560.241 809.884 559.456 807.754 559.456 804.928C559.456 802.028 560.267 799.861 561.887 798.431C563.52 796.992 565.697 796.273 568.416 796.273C571.04 796.273 573.141 796.981 574.72 798.401C576.299 799.808 577.088 801.888 577.088 804.641C577.088 807.51 576.299 809.695 574.72 811.201C573.141 812.704 570.966 813.455 568.193 813.455ZM568.353 809.585C569.526 809.585 570.411 809.222 571.007 808.495C571.605 807.76 571.904 806.507 571.904 804.737C571.904 803.052 571.601 801.866 570.993 801.184C570.395 800.492 569.504 800.143 568.32 800.143C567.179 800.143 566.278 800.518 565.617 801.264C564.965 802.001 564.64 803.201 564.64 804.864C564.64 806.603 564.949 807.823 565.568 808.528C566.198 809.232 567.126 809.585 568.353 809.585ZM596.367 802.863V812.208C596.367 812.528 596.298 812.753 596.161 812.88C596.031 812.997 595.808 813.056 595.489 813.056H592.192C591.872 813.056 591.643 812.997 591.503 812.88C591.376 812.753 591.313 812.528 591.313 812.208V803.697C591.313 802.533 591.067 801.686 590.576 801.153C590.086 800.619 589.418 800.352 588.577 800.352C587.733 800.352 587.082 800.533 586.625 800.895C586.176 801.26 585.828 801.718 585.585 802.271V812.208C585.585 812.528 585.515 812.753 585.376 812.88C585.249 812.997 585.023 813.056 584.704 813.056H581.409C581.087 813.056 580.858 812.997 580.721 812.88C580.592 812.753 580.528 812.528 580.528 812.208V798.8C580.528 798.544 580.581 798.347 580.688 798.208C580.911 797.909 581.179 797.606 581.489 797.297C581.808 796.987 582.197 796.656 582.656 796.303C582.795 796.197 582.928 796.144 583.055 796.144C583.174 796.144 583.307 796.197 583.457 796.303C583.903 796.656 584.288 796.992 584.608 797.311C584.927 797.633 585.21 797.962 585.456 798.304H585.536C585.718 798.069 585.99 797.796 586.353 797.487C586.715 797.168 587.221 796.885 587.872 796.639C588.534 796.396 589.376 796.273 590.4 796.273C591.403 796.273 592.357 796.475 593.265 796.881C594.17 797.284 594.911 797.968 595.489 798.929C596.074 799.887 596.367 801.2 596.367 802.863ZM616.225 813.455C612.661 813.455 610.88 811.606 610.88 807.903V800.399H609.071C608.752 800.399 608.528 800.336 608.399 800.209C608.283 800.07 608.223 799.84 608.223 799.521V797.553C608.223 797.231 608.283 797.008 608.399 796.881C608.528 796.742 608.752 796.672 609.071 796.672H610.88V794.096C610.88 793.84 610.933 793.643 611.039 793.504C611.488 792.918 612.143 792.283 613.007 791.599C613.157 791.493 613.29 791.439 613.409 791.439C613.536 791.439 613.665 791.493 613.792 791.599C614.251 791.951 614.636 792.283 614.945 792.592C615.264 792.902 615.537 793.205 615.76 793.504C615.866 793.643 615.92 793.84 615.92 794.096V796.672H618.752C619.071 796.672 619.291 796.742 619.407 796.881C619.536 797.008 619.6 797.231 619.6 797.553V799.521C619.6 799.84 619.536 800.07 619.407 800.209C619.291 800.336 619.071 800.399 618.752 800.399H615.92V807.025C615.92 808.731 616.538 809.585 617.775 809.585C617.968 809.585 618.144 809.568 618.304 809.536C618.463 809.493 618.603 809.452 618.719 809.409C618.945 809.323 619.098 809.29 619.184 809.312C619.28 809.333 619.364 809.452 619.44 809.665L620.368 812.145C620.464 812.411 620.401 812.603 620.175 812.72C620.016 812.794 619.626 812.933 619.008 813.136C618.4 813.349 617.472 813.455 616.225 813.455ZM628.447 813.455C624.65 813.455 622.752 811.158 622.752 806.56L622.735 798.431C622.735 798.175 622.789 797.979 622.895 797.839C623.344 797.254 624.001 796.619 624.863 795.937C625.013 795.83 625.146 795.775 625.265 795.775C625.402 795.775 625.537 795.83 625.664 795.937C626.123 796.287 626.506 796.619 626.815 796.928C627.137 797.237 627.409 797.54 627.632 797.839C627.739 797.979 627.792 798.175 627.792 798.431V806.111C627.792 808.428 628.709 809.585 630.544 809.585C631.452 809.585 632.177 809.269 632.719 808.641C633.264 808 633.537 807.135 633.537 806.048V798.431C633.537 798.175 633.59 797.979 633.696 797.839C634.145 797.254 634.8 796.619 635.664 795.937C635.814 795.83 635.947 795.775 636.064 795.775C636.203 795.775 636.336 795.83 636.463 795.937C636.922 796.287 637.307 796.619 637.616 796.928C637.936 797.237 638.208 797.54 638.431 797.839C638.538 797.979 638.591 798.175 638.591 798.431V812.321C638.591 812.524 638.523 812.7 638.384 812.847C638.245 812.986 638.069 813.056 637.856 813.056H635.456C635.286 813.056 635.13 813.036 634.993 812.993C634.864 812.939 634.741 812.843 634.624 812.704L633.633 811.424H633.52C633.35 811.67 633.082 811.952 632.719 812.272C632.367 812.591 631.851 812.87 631.169 813.103C630.495 813.339 629.59 813.455 628.447 813.455ZM660.015 813.455C658.213 813.455 656.646 813.169 655.313 812.591C653.98 812.005 652.943 811.098 652.208 809.871C651.473 808.645 651.104 807.062 651.104 805.12C651.104 802.208 651.85 800.006 653.345 798.511C654.838 797.018 656.822 796.273 659.296 796.273C660.906 796.273 662.266 796.559 663.376 797.137C664.496 797.712 665.344 798.507 665.92 799.521C666.507 800.533 666.8 801.692 666.8 802.992C666.8 804.262 666.475 805.147 665.823 805.648C665.174 806.15 664.224 806.4 662.977 806.4H656.112C656.198 807.498 656.597 808.335 657.312 808.913C658.037 809.488 659.018 809.775 660.257 809.775C661.238 809.775 662.022 809.632 662.608 809.345C663.206 809.046 663.622 808.811 663.855 808.641C664.058 808.491 664.287 808.421 664.543 808.432C664.746 808.432 665.035 808.475 665.408 808.561C665.793 808.634 666.171 808.778 666.544 808.993C666.81 809.13 666.944 809.323 666.944 809.568C666.944 809.708 666.917 809.904 666.864 810.16C666.833 810.31 666.78 810.529 666.704 810.816C666.63 811.094 666.534 811.354 666.415 811.6C666.352 811.717 666.251 811.829 666.112 811.936C665.899 812.085 665.553 812.282 665.072 812.528C664.603 812.773 663.958 812.986 663.136 813.169C662.315 813.359 661.275 813.455 660.015 813.455ZM656.081 803.119H661.295C661.84 803.119 662.112 802.869 662.112 802.368C662.112 801.61 661.873 800.977 661.391 800.465C660.922 799.941 660.214 799.681 659.264 799.681C658.229 799.681 657.467 800.01 656.976 800.672C656.497 801.333 656.198 802.148 656.081 803.119ZM684.976 798.351C685.371 797.872 685.98 797.407 686.801 796.961C687.632 796.502 688.8 796.273 690.303 796.273C692.437 796.273 693.979 796.822 694.927 797.919C695.878 799.019 696.353 800.668 696.353 802.863V812.208C696.353 812.528 696.283 812.753 696.144 812.88C696.017 812.997 695.792 813.056 695.472 813.056H692.177C691.855 813.056 691.626 812.997 691.489 812.88C691.36 812.753 691.296 812.528 691.296 812.208V803.697C691.296 802.501 691.077 801.649 690.641 801.137C690.203 800.612 689.547 800.352 688.673 800.352C687.892 800.352 687.274 800.528 686.815 800.881C686.369 801.221 686.047 801.686 685.857 802.271V812.208C685.857 812.528 685.787 812.753 685.648 812.88C685.521 812.997 685.296 813.056 684.976 813.056H681.681C681.359 813.056 681.13 812.997 680.993 812.88C680.864 812.753 680.8 812.528 680.8 812.208V803.697C680.8 802.533 680.561 801.686 680.079 801.153C679.6 800.619 678.971 800.352 678.191 800.352C677.456 800.352 676.864 800.533 676.416 800.895C675.967 801.26 675.621 801.718 675.375 802.271V812.208C675.375 812.528 675.308 812.753 675.168 812.88C675.039 812.997 674.816 813.056 674.497 813.056H671.199C670.88 813.056 670.65 812.997 670.511 812.88C670.384 812.753 670.321 812.528 670.321 812.208V798.8C670.321 798.544 670.374 798.347 670.48 798.208C670.704 797.909 670.97 797.606 671.279 797.297C671.601 796.987 671.99 796.656 672.449 796.303C672.586 796.197 672.721 796.144 672.848 796.144C672.965 796.144 673.098 796.197 673.247 796.303C673.696 796.656 674.081 796.992 674.4 797.311C674.72 797.633 675.002 797.962 675.248 798.304H675.328C675.691 797.846 676.256 797.393 677.024 796.944C677.792 796.496 678.892 796.273 680.321 796.273C681.685 796.273 682.699 796.48 683.36 796.895C684.022 797.301 684.56 797.786 684.976 798.351ZM710.879 796.273C712.438 796.273 713.718 796.625 714.719 797.327C715.733 798.022 716.485 798.982 716.976 800.209C717.478 801.423 717.728 802.822 717.728 804.399C717.728 806.107 717.435 807.643 716.847 809.007C716.272 810.373 715.42 811.457 714.287 812.255C713.157 813.056 711.754 813.455 710.081 813.455C709.216 813.455 708.502 813.355 707.936 813.152C707.381 812.96 706.933 812.73 706.593 812.464C706.261 812.188 706.001 811.936 705.808 811.713H705.745V818.528C705.745 818.784 705.692 818.981 705.583 819.12C705.137 819.706 704.479 820.341 703.615 821.025C703.468 821.131 703.332 821.185 703.216 821.185C703.089 821.185 702.956 821.131 702.816 821.025C702.358 820.673 701.968 820.341 701.649 820.032C701.34 819.722 701.071 819.419 700.848 819.12C700.742 818.981 700.688 818.784 700.688 818.528V798.8C700.688 798.544 700.742 798.347 700.848 798.208C701.071 797.909 701.34 797.606 701.649 797.297C701.968 796.987 702.358 796.656 702.816 796.303C702.956 796.197 703.099 796.144 703.248 796.144C703.388 796.144 703.531 796.197 703.681 796.303C704.127 796.656 704.512 796.992 704.832 797.311C705.151 797.633 705.436 797.962 705.679 798.304H705.759C705.942 798.081 706.218 797.809 706.593 797.487C706.965 797.168 707.494 796.885 708.176 796.639C708.87 796.396 709.771 796.273 710.879 796.273ZM708.911 809.376C710.064 809.376 710.955 808.976 711.584 808.176C712.225 807.365 712.544 806.197 712.544 804.672C712.544 801.792 711.36 800.352 708.993 800.352C707.989 800.352 707.248 800.559 706.769 800.977C706.288 801.38 705.948 801.813 705.745 802.271V805.745C705.745 806.779 706.011 807.643 706.544 808.335C707.078 809.03 707.867 809.376 708.911 809.376ZM726.225 799.711H726.288C727.087 797.493 728.529 796.383 730.608 796.383C730.874 796.383 731.093 796.4 731.263 796.432C731.435 796.453 731.552 796.475 731.615 796.496C731.775 796.549 731.857 796.672 731.857 796.865V800.721C731.857 801.051 731.664 801.141 731.279 800.991C731.152 800.938 730.966 800.885 730.72 800.832C730.485 800.768 730.155 800.735 729.727 800.735C728.629 800.735 727.771 801.141 727.153 801.952C726.534 802.753 726.225 803.846 726.225 805.233V812.208C726.225 812.528 726.155 812.753 726.016 812.88C725.889 812.997 725.664 813.056 725.344 813.056H722.047C721.728 813.056 721.498 812.997 721.361 812.88C721.232 812.753 721.168 812.528 721.168 812.208V798.8C721.168 798.544 721.222 798.347 721.328 798.208C721.551 797.909 721.82 797.606 722.129 797.297C722.448 796.987 722.838 796.656 723.296 796.303C723.382 796.24 723.466 796.197 723.552 796.176C723.638 796.154 723.712 796.144 723.776 796.144C723.925 796.144 724.075 796.197 724.224 796.303C725.109 796.998 725.727 797.59 726.08 798.081C726.176 798.208 726.225 798.358 726.225 798.528V799.711ZM742.287 813.455C740.485 813.455 738.916 813.169 737.583 812.591C736.25 812.005 735.216 811.098 734.48 809.871C733.743 808.645 733.377 807.062 733.377 805.12C733.377 802.208 734.122 800.006 735.617 798.511C737.11 797.018 739.092 796.273 741.569 796.273C743.178 796.273 744.538 796.559 745.648 797.137C746.768 797.712 747.616 798.507 748.192 799.521C748.78 800.533 749.072 801.692 749.072 802.992C749.072 804.262 748.747 805.147 748.096 805.648C747.446 806.15 746.496 806.4 745.249 806.4H738.384C738.47 807.498 738.869 808.335 739.584 808.913C740.309 809.488 741.29 809.775 742.527 809.775C743.51 809.775 744.292 809.632 744.88 809.345C745.478 809.046 745.894 808.811 746.127 808.641C746.33 808.491 746.56 808.421 746.816 808.432C747.018 808.432 747.307 808.475 747.68 808.561C748.065 808.634 748.444 808.778 748.816 808.993C749.083 809.13 749.216 809.323 749.216 809.568C749.216 809.708 749.189 809.904 749.136 810.16C749.103 810.31 749.05 810.529 748.976 810.816C748.9 811.094 748.806 811.354 748.687 811.6C748.624 811.717 748.524 811.829 748.384 811.936C748.171 812.085 747.823 812.282 747.344 812.528C746.875 812.773 746.23 812.986 745.409 813.169C744.587 813.359 743.547 813.455 742.287 813.455ZM738.351 803.119H743.567C744.112 803.119 744.385 802.869 744.385 802.368C744.385 801.61 744.145 800.977 743.664 800.465C743.195 799.941 742.486 799.681 741.536 799.681C740.502 799.681 739.74 800.01 739.248 800.672C738.769 801.333 738.47 802.148 738.351 803.119ZM757.152 813.455C756.011 813.455 755.061 813.359 754.303 813.169C753.558 812.976 752.955 812.747 752.497 812.481C752.048 812.202 751.696 811.952 751.44 811.729C751.247 811.547 751.227 811.344 751.376 811.121L753.009 808.704C753.242 808.362 753.508 808.342 753.807 808.641C754.117 808.94 754.532 809.232 755.057 809.519C755.589 809.798 756.251 809.937 757.039 809.937C757.744 809.937 758.319 809.818 758.768 809.585C759.226 809.339 759.456 808.987 759.456 808.528C759.456 808.208 759.355 807.946 759.153 807.744C758.95 807.541 758.592 807.334 758.08 807.121C757.568 806.906 756.853 806.636 755.935 806.304C754.582 805.814 753.558 805.22 752.863 804.528C752.171 803.834 751.825 802.822 751.825 801.489C751.825 800.262 752.161 799.265 752.833 798.497C753.514 797.729 754.385 797.168 755.44 796.815C756.507 796.453 757.617 796.273 758.768 796.273C760.23 796.273 761.254 796.41 761.84 796.688C762.438 796.955 762.821 797.164 762.993 797.311C763.152 797.45 763.265 797.61 763.329 797.792C763.466 798.208 763.574 798.757 763.648 799.441C763.691 799.834 763.589 800.096 763.345 800.223C763.216 800.299 763.013 800.379 762.737 800.465C762.458 800.549 762.182 800.625 761.903 800.688C761.627 800.752 761.418 800.784 761.281 800.784C761.238 800.784 761.188 800.774 761.135 800.752C761.094 800.721 761.014 800.651 760.896 800.545C760.758 800.406 760.517 800.246 760.177 800.064C759.845 799.883 759.386 799.791 758.8 799.791C758.225 799.791 757.74 799.887 757.344 800.08C756.959 800.262 756.769 800.586 756.769 801.057C756.769 801.569 757.012 801.952 757.504 802.208C758.006 802.464 758.827 802.796 759.968 803.201C760.865 803.51 761.643 803.85 762.305 804.225C762.976 804.588 763.492 805.067 763.857 805.665C764.219 806.251 764.4 807.045 764.4 808.049C764.4 809.349 764.043 810.4 763.329 811.201C762.624 811.989 761.717 812.564 760.609 812.929C759.509 813.279 758.358 813.455 757.152 813.455ZM771.777 813.455C770.208 813.455 768.961 813.019 768.033 812.145C767.115 811.258 766.657 810.043 766.657 808.495C766.657 807.696 766.8 806.955 767.089 806.273C767.388 805.579 767.9 804.971 768.625 804.448C769.36 803.914 770.384 803.488 771.697 803.168C773.02 802.849 774.703 802.66 776.751 802.607C776.751 801.636 776.507 800.938 776.016 800.512C775.537 800.086 774.812 799.871 773.841 799.871C772.964 799.871 772.252 800.021 771.697 800.32C771.142 800.619 770.796 800.821 770.656 800.928C770.507 801.057 770.325 801.104 770.112 801.071C769.825 801.03 769.516 800.954 769.184 800.848C768.864 800.741 768.518 800.619 768.143 800.479C768.09 800.459 768.033 800.426 767.967 800.383C767.904 800.33 767.867 800.256 767.857 800.16C767.857 800.107 767.861 800.043 767.873 799.967C767.883 799.883 767.91 799.734 767.953 799.521C767.994 799.306 768.059 799.046 768.143 798.736C768.229 798.417 768.309 798.171 768.385 797.999C768.479 797.819 768.639 797.649 768.864 797.487C769.044 797.34 769.595 797.098 770.513 796.768C771.428 796.437 772.758 796.273 774.496 796.273C779.284 796.273 781.681 798.603 781.681 803.265V812.321C781.681 812.524 781.621 812.7 781.505 812.847C781.398 812.986 781.212 813.056 780.943 813.056H778.543C778.373 813.056 778.22 813.036 778.08 812.993C777.951 812.939 777.828 812.843 777.712 812.704L776.72 811.424H776.608C776.118 812.139 775.457 812.657 774.623 812.976C773.802 813.296 772.854 813.455 771.777 813.455ZM773.536 809.744C774.517 809.744 775.258 809.493 775.76 808.993C776.262 808.491 776.581 807.973 776.72 807.44V805.665C775.238 805.665 774.124 805.782 773.376 806.015C772.641 806.24 772.149 806.539 771.904 806.912C771.658 807.275 771.537 807.67 771.537 808.096C771.537 808.714 771.727 809.146 772.112 809.392C772.495 809.628 772.971 809.744 773.536 809.744Z" fill="#0F0F11"/>
<path d="M397.312 372.736C424.119 287.836 449.675 279.713 528.384 327.68C528.384 327.68 561.754 385.133 579.584 434.818C597.414 484.502 620.544 581.632 620.544 581.632L489.472 628.736C489.472 628.736 468.148 530.31 450.318 480.625C432.488 430.943 397.312 372.736 397.312 372.736Z" fill="#3D3B3B"/>
<path d="M397.312 372.736C424.119 287.836 449.675 279.713 528.384 327.68C528.384 327.68 561.754 385.133 579.584 434.818C597.414 484.502 620.544 581.632 620.544 581.632L489.472 628.736C489.472 628.736 468.148 530.31 450.318 480.625C432.488 430.943 397.312 372.736 397.312 372.736Z" fill="#3D3B3B"/>
<path d="M397.312 372.736C424.119 287.836 449.675 279.713 528.384 327.68C528.384 327.68 561.754 385.133 579.584 434.818C597.414 484.502 620.544 581.632 620.544 581.632L489.472 628.736C489.472 628.736 468.148 530.31 450.318 480.625C432.488 430.943 397.312 372.736 397.312 372.736Z" fill="#3D3B3B"/>
<path d="M397.312 372.736C424.119 287.836 449.675 279.713 528.384 327.68C528.384 327.68 561.754 385.133 579.584 434.818C597.414 484.502 620.544 581.632 620.544 581.632L489.472 628.736C489.472 628.736 468.148 530.31 450.318 480.625C432.488 430.943 397.312 372.736 397.312 372.736Z" stroke="#3D3B3B"/>
<path d="M527.932 327.306L397.922 371.996L399.811 358.774L529.821 314.082L527.932 327.306Z" fill="#3D3B3B" stroke="#3D3B3B"/>
<path d="M620.498 581.595L489.533 628.66L491.565 614.437L622.531 567.37L620.498 581.595Z" fill="#0F0F11" stroke="#0F0F11" stroke-width="0.1"/>
<path d="M399.36 358.4C426.167 273.5 451.723 265.377 530.432 313.344C530.432 313.344 563.802 370.156 581.632 419.84C599.462 469.525 622.592 567.296 622.592 567.296L491.52 614.4C491.52 614.4 470.196 515.332 452.366 465.648C434.537 415.965 399.36 358.4 399.36 358.4Z" fill="#0F0F11"/>
<path d="M399.36 358.4C426.167 273.5 451.723 265.377 530.432 313.344C530.432 313.344 563.802 370.156 581.632 419.84C599.462 469.525 622.592 567.296 622.592 567.296L491.52 614.4C491.52 614.4 470.196 515.332 452.366 465.648C434.537 415.965 399.36 358.4 399.36 358.4Z" fill="#0F0F11"/>
<path d="M399.36 358.4C426.167 273.5 451.723 265.377 530.432 313.344C530.432 313.344 563.802 370.156 581.632 419.84C599.462 469.525 622.592 567.296 622.592 567.296L491.52 614.4C491.52 614.4 470.196 515.332 452.366 465.648C434.537 415.965 399.36 358.4 399.36 358.4Z" fill="#0F0F11"/>
<path d="M459.776 325.632C465.997 325.632 471.04 320.589 471.04 314.368C471.04 308.147 465.997 303.104 459.776 303.104C453.555 303.104 448.512 308.147 448.512 314.368C448.512 320.589 453.555 325.632 459.776 325.632Z" fill="white"/>
</g>
<defs>
<clipPath id="clip0_16_493">
<rect width="1024" height="1024" fill="white"/>
</clipPath>
</defs>
</svg>
